<?xml version="1.0" encoding="iso-8859-1"?>
<!-- Generator: Adobe Illustrator 19.0.0, SVG Export Plug-In . SVG Version: 6.00 Build 0)  -->
<svg version="1.1" id="Capa_1" xmlns="http://www.w3.org/2000/svg" xmlns:xlink="http://www.w3.org/1999/xlink" x="0px" y="0px"
	 viewBox="0 0 412.749 412.749" style="enable-background:new 0 0 412.749 412.749;" xml:space="preserve">
<g>
	<g>
		<g>
			<path style="fill:#00CEB4;" d="M394.979,249.745v126.433c0,20.198-16.374,36.571-36.571,36.571H54.342
				c-20.198,0-36.571-16.374-36.571-36.571v-44.931l91.429-66.351c15.814-11.432,37.395-10.569,52.245,2.09l59.559,52.245
				c13.62,11.677,33.173,13.359,48.588,4.18L394.979,249.745z"/>
			<path style="fill:#00EFD1;" d="M394.979,151.003v98.743l-125.388,73.665c-15.414,9.179-34.967,7.497-48.588-4.18l-59.559-52.245
				c-14.85-12.659-36.431-13.522-52.245-2.09l-91.429,66.351V151.003c0-20.198,16.374-36.571,36.571-36.571h304.065
				C378.605,114.431,394.979,130.805,394.979,151.003z"/>
		</g>
		<g>
			<path style="fill:#00ACEA;" d="M368.856,73.158H43.893c-5.771,0-10.449-4.678-10.449-10.449
				c-0.297-5.474,3.901-10.152,9.375-10.449c0.358-0.019,0.716-0.019,1.074,0h324.963c5.474-0.297,10.152,3.901,10.449,9.375
				c0.019,0.358,0.019,0.716,0,1.074C379.305,68.479,374.627,73.158,368.856,73.158z"/>
			<path style="fill:#00ACEA;" d="M342.734,20.913H70.016c-5.771,0-10.449-4.678-10.449-10.449
				C59.27,4.99,63.467,0.311,68.942,0.015c0.358-0.019,0.716-0.019,1.074,0h272.718c5.474-0.297,10.152,3.901,10.449,9.375
				c0.019,0.358,0.019,0.716,0,1.074C353.183,16.235,348.505,20.913,342.734,20.913z"/>
		</g>
	</g>
	<circle style="fill:#D4E1F4;" cx="242.946" cy="206.905" r="36.049"/>
</g>
<g>
</g>
<g>
</g>
<g>
</g>
<g>
</g>
<g>
</g>
<g>
</g>
<g>
</g>
<g>
</g>
<g>
</g>
<g>
</g>
<g>
</g>
<g>
</g>
<g>
</g>
<g>
</g>
<g>
</g>
</svg>
